<svg width="394" height="119" viewBox="0 0 394 119" fill="none" xmlns="http://www.w3.org/2000/svg">
<path fill-rule="evenodd" clip-rule="evenodd" d="M123.892 61.5442C123.892 27.5541 96.1579 0 61.9462 0C27.7342 0 0 27.5541 0 61.5442C0 84.6697 12.8385 104.816 31.8208 115.333C31.8235 115.292 31.8291 115.253 31.8374 115.216C31.3093 113.117 31.3476 105.655 35.7271 92.602C40.1063 79.5492 50.8061 67.0305 55.3195 62.689C55.4577 62.5557 55.5693 62.4568 55.6584 62.3785C55.9379 62.1315 55.983 62.0913 55.896 61.8301C55.7803 61.4867 54.9355 61.687 54.4553 61.8301L14.6942 72.2783C16.711 66.6967 21.2922 60.1988 29.2443 55.962C37.1964 51.7257 45.7153 52.6704 48.9805 53.6719C49.0194 53.6769 49.0594 53.6824 49.0993 53.6882C49.4628 53.7388 49.8856 53.7975 49.9891 53.386C50.1048 52.9279 49.8457 52.6704 49.557 52.6704L19.7363 35.6383C22.4254 34.207 30.108 31.9407 39.4725 33.4913C48.1163 34.9226 55.0789 42.4128 57.0479 45.8002C57.2404 46.1819 57.6243 46.8307 58.0564 46.659C58.4168 46.5158 58.2008 45.8002 58.0564 45.3706L49.7013 13.5969C51.8618 13.8832 62.0896 17.6045 67.1323 30.0563C69.5497 36.0275 69.1494 44.4643 68.4285 47.3747L68.4101 47.4307C68.2617 47.8693 68.0149 48.6003 68.4285 48.8059C68.7009 48.9405 69.1494 48.6626 69.4371 48.2334C72.3184 45.2278 77.3611 41.9358 84.852 40.6476C95.8221 38.7613 105.741 44.178 108.622 47.5178L76.0638 55.962C75.6317 56.1052 75.1996 56.3198 75.344 56.8208C75.4259 57.1072 75.7761 57.1072 76.4959 57.1072C81.8263 57.25 86.7247 58.5385 92.9193 63.2613C100.991 69.4159 104.156 79.5299 103.868 83.8714L74.6232 67.1259C74.3836 66.8873 73.8174 66.496 73.4713 66.8394C73.1252 67.1832 73.6146 67.6509 73.9034 67.8415C75.5836 69.0821 79.4355 74.0245 81.3943 83.8714C83.354 93.7183 77.6007 103.05 74.4798 106.485L63.2425 65.265C62.8585 65.3607 61.6298 67.0974 58.0564 73.8528C53.5901 82.2969 53.0147 89.0239 52.8703 93.1748C52.727 97.3253 53.4898 108.043 62.8104 113.928C92.9193 132.938 123.892 88.2714 123.892 61.5442ZM91.6231 22.7569C91.6231 27.2626 87.9462 30.9151 83.4113 30.9151C78.8765 30.9151 75.1996 27.2626 75.1996 22.7569C75.1996 18.2513 78.8765 14.5988 83.4113 14.5988C87.9462 14.5988 91.6231 18.2513 91.6231 22.7569Z" fill="#FEAE1C"/>
<path fill-rule="evenodd" clip-rule="evenodd" d="M137 78.2877C137.071 78.438 137.296 78.7755 137.935 79.2377C138.683 79.7787 139.831 80.3636 141.421 80.9015C144.594 81.9752 149.349 82.7994 155.714 82.7994C163.204 82.7994 168.502 81.1633 171.89 78.6569C175.233 76.1832 176.827 72.7892 176.827 68.9248C176.827 60.9772 172.493 58.7121 170.786 58.3716L167.135 57.6435L170.328 55.7333C171.48 55.0441 172.708 54.2127 173.67 52.8485C174.617 51.5069 175.387 49.5312 175.387 46.4389C175.387 43.5572 174.053 40.4996 170.969 38.1262C167.869 35.7405 162.931 34 155.714 34C148.346 34 143.723 34.7138 140.874 35.6607C138.319 36.5095 137.359 37.484 137 38.1426V78.2877ZM149.476 43.5685H157.633C160.548 43.5685 162.911 45.9245 162.911 48.8307C162.911 51.737 160.548 54.0941 157.633 54.0941H149.476V43.5685ZM149.476 61.7482H158.113C161.293 61.7482 163.871 64.319 163.871 67.4901C163.871 70.6602 161.293 73.231 158.113 73.231H149.476V61.7482ZM255.999 45.314V72.6164L249.327 73.2811C246.22 73.5909 243.524 71.1582 243.524 68.0444V49.7204C243.524 46.5544 240.741 44.1053 237.591 44.498L231.048 45.314V70.3605C231.048 74.2761 235.988 82.7994 248.322 82.7994C257.092 82.7994 262.152 81.3729 264.983 79.5087C267.701 77.7181 268.475 75.4521 268.475 73.231V49.7194C268.475 46.5544 265.692 44.1053 262.543 44.498L255.999 45.314ZM290.548 53.7515L297.221 53.0858C300.327 52.777 303.024 55.2097 303.024 58.3225V76.6475C303.024 79.8124 305.806 82.2616 308.957 81.8699L315.499 81.0539V56.0074C315.499 52.0908 310.56 43.5685 298.225 43.5685C289.455 43.5685 284.395 44.995 281.564 46.8592C278.846 48.6487 278.073 50.9148 278.073 53.1369V76.6475C278.073 79.8134 280.854 82.2616 284.005 81.8699L290.548 81.0539V53.7515ZM337.092 48.3522V42.4651C337.092 38.6467 333.675 35.7302 329.891 36.3203L324.616 37.1414V71.2891C324.693 73.1563 325.279 75.7364 326.72 77.9319C328.137 80.0916 330.383 81.8924 333.912 82.3321C339.501 83.0285 344.067 82.0458 346.386 80.1857C347.495 79.296 348.052 78.2478 348.084 77.0575C348.113 75.9787 347.715 74.6033 346.58 72.9457C345.144 73.2729 343.326 73.549 341.71 73.4805C340.719 73.4386 339.634 73.2637 338.75 72.7493C337.768 72.1777 337.092 71.2073 337.092 69.882V56.9645H346.611C347.895 55.6607 349.592 52.5591 347.711 48.3522H337.092ZM369.048 78.9565L367.468 80.8473C366.636 81.8423 365.229 83.3925 363.678 84.8487C362.386 86.0625 360.885 87.3152 359.48 88.0791C359.333 89.1099 359.373 90.4761 359.878 91.7411C360.461 93.2003 361.696 94.6299 364.312 95.2813C367.96 96.1904 371.191 94.7403 374.176 91.8474C377.183 88.933 379.736 84.7383 381.884 80.6929C386.14 72.6788 390.837 59.6437 392.796 51.8321C393.682 48.301 392.921 46.0217 391.345 44.8324C389.756 43.6339 386.845 43.1339 382.402 44.2618L374.599 72.0509L367.86 50.6704L367.853 50.6438C367.504 49.3707 367.046 47.9861 366.39 46.7539C365.733 45.5175 364.926 44.5246 363.927 43.9233C362.182 42.8741 359.119 42.643 353.621 46.533C355.153 51.9834 357.547 59.701 360.066 66.2712C361.402 69.7593 362.757 72.8772 364.018 75.1504C364.651 76.2916 365.233 77.169 365.747 77.7652C366.003 78.0617 366.217 78.2601 366.386 78.3828C366.545 78.4974 366.622 78.5168 366.622 78.5168L369.048 78.9565ZM218.167 77.0749C221.542 73.5695 223.371 68.6804 223.371 63.1839C223.371 57.6875 221.542 52.7984 218.167 49.293C214.803 45.7977 209.797 43.5685 203.218 43.5685C196.639 43.5685 191.632 45.7977 188.268 49.293C184.893 52.7984 183.064 57.6875 183.064 63.1839C183.064 68.6804 184.893 73.5695 188.268 77.0749C191.632 80.5691 196.639 82.7994 203.218 82.7994C209.797 82.7994 214.803 80.5691 218.167 77.0749ZM209.028 70.0783C207.735 71.9803 205.753 73.231 203.218 73.231C200.682 73.231 198.7 71.9803 197.407 70.0783C196.144 68.2202 195.54 65.7629 195.54 63.1839C195.54 60.6039 196.144 58.1476 197.407 56.2886C198.7 54.3876 200.682 53.1369 203.218 53.1369C205.753 53.1369 207.735 54.3876 209.028 56.2886C210.291 58.1476 210.895 60.6039 210.895 63.1839C210.895 65.7629 210.291 68.2202 209.028 70.0783Z" fill="#0784FF"/>
</svg>
